<svg width="20" height="20" viewBox="0 0 20 20" fill="none" xmlns="http://www.w3.org/2000/svg">
<rect width="20" height="20" rx="10" fill="#7A7A7A"/>
<path d="M9.688 12.135C9.974 12.135 10.2383 12.0267 10.481 11.81C10.7323 11.5847 10.9013 11.264 10.988 10.848C10.988 10.796 10.988 10.7093 10.988 10.588C10.9967 10.4667 11.001 10.38 11.001 10.328C10.949 9.92067 10.8147 9.613 10.598 9.405C10.3813 9.18833 10.13 9.08 9.844 9.08C9.48 9.08 9.168 9.23167 8.908 9.535C8.65667 9.83833 8.531 10.263 8.531 10.809C8.531 11.2077 8.64367 11.5283 8.869 11.771C9.103 12.0137 9.376 12.135 9.688 12.135ZM12.184 14.176L12.132 15.775C11.3347 16.1303 10.4853 16.308 9.584 16.308C8.42267 16.308 7.413 16.0523 6.555 15.541C5.697 15.0383 5.06 14.384 4.644 13.578C4.228 12.772 4.02 11.8793 4.02 10.9C4.02 9.782 4.30167 8.75067 4.865 7.806C5.42833 6.86133 6.18667 6.12033 7.14 5.583C8.09333 5.04567 9.129 4.777 10.247 4.777C11.2177 4.777 12.1147 4.97633 12.938 5.375C13.77 5.77367 14.446 6.37167 14.966 7.169C15.486 7.95767 15.746 8.86767 15.746 9.899C15.746 10.9217 15.486 11.7797 14.966 12.473C14.4547 13.1577 13.835 13.5 13.107 13.5C12.0843 13.5 11.4213 13.0277 11.118 12.083C10.9447 12.5423 10.6803 12.8933 10.325 13.136C9.97833 13.37 9.584 13.487 9.142 13.487C8.44 13.487 7.88533 13.2227 7.478 12.694C7.07067 12.1567 6.867 11.5023 6.867 10.731C6.867 9.82967 7.13133 9.106 7.66 8.56C8.18867 8.00533 8.81267 7.728 9.532 7.728C10.234 7.728 10.754 8.04433 11.092 8.677C11.1267 8.25233 11.1483 7.94467 11.157 7.754H12.665L12.652 8.014C12.548 9.574 12.496 10.445 12.496 10.627C12.496 11.563 12.717 12.031 13.159 12.031C13.4623 12.031 13.7093 11.8533 13.9 11.498C14.0907 11.134 14.186 10.6443 14.186 10.029C14.186 8.79833 13.809 7.871 13.055 7.247C12.3097 6.623 11.352 6.311 10.182 6.311C9.28933 6.311 8.492 6.53633 7.79 6.987C7.09667 7.429 6.57233 8.001 6.217 8.703C5.86167 9.405 5.684 10.1547 5.684 10.952C5.684 12.122 6.05667 13.0493 6.802 13.734C7.54733 14.4273 8.47033 14.774 9.571 14.774C10.481 14.774 11.352 14.5747 12.184 14.176Z" fill="white"/>
</svg>
