<svg width="20" height="20" viewBox="0 0 20 20" fill="none" xmlns="http://www.w3.org/2000/svg">
<rect width="20" height="20" rx="10" fill="#7A7A7A"/>
<path fill-rule="evenodd" clip-rule="evenodd" d="M16 15.5H13.7398V11.6504C13.7398 10.595 13.3388 10.0052 12.5034 10.0052C11.5946 10.0052 11.1198 10.619 11.1198 11.6504V15.5H8.94167V8.16667H11.1198V9.15447C11.1198 9.15447 11.7747 7.94262 13.3309 7.94262C14.8864 7.94262 16 8.89248 16 10.857V15.5ZM6.34313 7.20643C5.6012 7.20643 5 6.6005 5 5.85321C5 5.10592 5.6012 4.5 6.34313 4.5C7.08506 4.5 7.6859 5.10592 7.6859 5.85321C7.6859 6.6005 7.08506 7.20643 6.34313 7.20643ZM5.21842 15.5H7.48968V8.16667H5.21842V15.5Z" fill="white"/>
</svg>
