<svg width="20" height="20" viewBox="0 0 20 20" fill="none" xmlns="http://www.w3.org/2000/svg">
<rect width="20" height="20" rx="10" fill="#7A7A7A"/>
<path fill-rule="evenodd" clip-rule="evenodd" d="M8.46927 4.9132C8.95457 4.69543 9.47471 4.58334 10 4.58334C10.5253 4.58334 11.0454 4.69543 11.5307 4.9132C12.016 5.13097 12.457 5.45016 12.8284 5.85255C13.1999 6.25495 13.4945 6.73265 13.6955 7.2584C13.8965 7.78415 14 8.34764 14 8.91671C14 10.5948 12.9921 12.2232 11.887 13.4869C11.3447 14.1071 10.8007 14.6148 10.3917 14.9676C10.2394 15.0989 10.1065 15.2083 10 15.2936C9.89351 15.2083 9.76056 15.0989 9.60834 14.9676C9.19933 14.6148 8.65531 14.1071 8.11298 13.4869C7.00787 12.2232 6 10.5948 6 8.91671C6 8.34764 6.10346 7.78415 6.30448 7.2584C6.5055 6.73265 6.80014 6.25494 7.17157 5.85255C7.54301 5.45016 7.98396 5.13097 8.46927 4.9132ZM9.72238 16.4089C9.72252 16.409 9.72265 16.4091 10 15.9584L10.2773 16.4091C10.1094 16.5304 9.89033 16.5302 9.72238 16.4089ZM9.72238 16.4089L10 15.9584C10.2773 16.4091 10.2779 16.4088 10.278 16.4087L10.279 16.4079L10.2824 16.4055L10.2938 16.3971C10.3036 16.3899 10.3175 16.3796 10.3352 16.3663C10.3707 16.3397 10.4218 16.3008 10.4861 16.2505C10.6147 16.1499 10.7968 16.003 11.0146 15.8151C11.4493 15.4401 12.0303 14.8983 12.613 14.232C13.7579 12.9228 15 11.0303 15 8.91671C15 8.20538 14.8707 7.50101 14.6194 6.84382C14.3681 6.18664 13.9998 5.5895 13.5355 5.08652C13.0712 4.58353 12.52 4.18454 11.9134 3.91232C11.3068 3.64011 10.6566 3.5 10 3.5C9.34339 3.5 8.69321 3.64011 8.08658 3.91232C7.47995 4.18454 6.92876 4.58353 6.46447 5.08652C6.00017 5.5895 5.63188 6.18664 5.3806 6.84382C5.12933 7.50101 5 8.20538 5 8.91671C5 11.0303 6.24213 12.9228 7.38702 14.232C7.96969 14.8983 8.55067 15.4401 8.98541 15.8151C9.20318 16.003 9.38527 16.1499 9.5139 16.2505C9.57823 16.3008 9.62926 16.3397 9.66478 16.3663C9.68254 16.3796 9.69642 16.3899 9.70616 16.3971L9.71762 16.4055L9.72095 16.4079L9.72238 16.4089ZM10 6.75002C9.46957 6.75002 8.96086 6.9783 8.58579 7.38463C8.21071 7.79096 8 8.34207 8 8.91671C8 9.49135 8.21071 10.0425 8.58579 10.4488C8.96086 10.8551 9.46957 11.0834 10 11.0834C10.5304 11.0834 11.0391 10.8551 11.4142 10.4488C11.7893 10.0425 12 9.49135 12 8.91671C12 8.34207 11.7893 7.79096 11.4142 7.38463C11.0391 6.9783 10.5304 6.75002 10 6.75002ZM10.7071 9.68275C10.5196 9.88591 10.2652 10 10 10C9.73478 10 9.48043 9.88591 9.29289 9.68275C9.10536 9.47958 9 9.20403 9 8.91671C9 8.62939 9.10536 8.35384 9.29289 8.15067C9.48043 7.9475 9.73478 7.83337 10 7.83337C10.2652 7.83337 10.5196 7.9475 10.7071 8.15067C10.8946 8.35384 11 8.62939 11 8.91671C11 9.20403 10.8946 9.47958 10.7071 9.68275Z" fill="white"/>
</svg>
