<svg width="20" height="20" viewBox="0 0 20 20" fill="none" xmlns="http://www.w3.org/2000/svg">
<path d="M10 20C15.5228 20 20 15.5228 20 10C20 4.47715 15.5228 0 10 0C4.47715 0 0 4.47715 0 10C0 15.5228 4.47715 20 10 20Z" fill="#7A7A7A"/>
<path fill-rule="evenodd" clip-rule="evenodd" d="M4.52131 9.8917C7.43554 8.62609 9.3756 7.78512 10.3498 7.37713C13.1225 6.21976 13.7053 6.01992 14.08 6.0116C14.1633 6.0116 14.3465 6.02825 14.4713 6.12817C14.5713 6.21143 14.5962 6.31967 14.6129 6.40294C14.6295 6.4862 14.6462 6.66106 14.6295 6.79428C14.4797 8.37629 13.8302 12.2148 13.4972 13.98C13.3556 14.7293 13.0808 14.9791 12.8144 15.0041C12.2315 15.0541 11.7902 14.6211 11.2324 14.2547C10.3498 13.6802 9.85853 13.3222 9.00091 12.756C8.01007 12.1065 8.6512 11.7485 9.21739 11.1656C9.36727 11.0158 11.9235 8.68437 11.9734 8.47621C11.9818 8.45123 11.9818 8.35131 11.9235 8.30136C11.8652 8.2514 11.7819 8.26805 11.7153 8.2847C11.6237 8.30136 10.2249 9.23391 7.50216 11.074C7.10249 11.3488 6.74445 11.482 6.41972 11.4737C6.06169 11.4654 5.37893 11.2739 4.86269 11.1074C4.23821 10.9075 3.73863 10.7993 3.78026 10.4496C3.80524 10.2664 4.05503 10.0832 4.52131 9.8917Z" fill="white"/>
</svg>
